<?xml version="1.0" encoding="iso-8859-1"?>
<!-- Generator: Adobe Illustrator 18.1.0, SVG Export Plug-In . SVG Version: 6.00 Build 0)  -->
<!DOCTYPE svg PUBLIC "-//W3C//DTD SVG 1.1//EN" "http://www.w3.org/Graphics/SVG/1.1/DTD/svg11.dtd">
<svg version="1.1" id="Calque_1" xmlns="http://www.w3.org/2000/svg" xmlns:xlink="http://www.w3.org/1999/xlink" x="0px" y="0px"
	 viewBox="0 0 1024 768" style="enable-background:new 0 0 1024 768;" xml:space="preserve">
<g>
	<g>
		<g style="enable-background:new    ;">
			<g>
				<g>
					<defs>
						<path id="SVGID_1_" d="M576.601,386.338c-0.337,0.751-0.695,1.591-1.029,2.482c-1.673,3.394-2.339,6.962-2.433,10.644
							c-0.02,0.728-0.017,1.474,0.003,2.217c0.506,3.14,0.517,6.696-0.189,10.019c-0.183,0.823-0.395,1.64-0.669,2.428
							c-1.552,5.985-7.325,10.101-13.343,9.247c11.033-8.576,7.899-24.265,7.899-24.265c-0.703,14.447-10.161,22.351-13.523,24.865
							c-0.02-0.006-0.054-0.086-0.077-0.186c-14.77-38.403-61.683-43.188-61.683-43.188c40.241,14.529,53.458,38.329,57.646,50.005
							c-0.083,0.114-0.18,0.231-0.269,0.349c-7.039,8.347-15.333,13.564-26.655,14.084c-7.977,0.283-15.504-0.357-22.809-2.543
							c-1.884-0.606-3.757-1.323-5.607-2.151c-24.056-10.804-44.223-41.526-38.966-107.025c0,0,3.517,3.828,9.032,8.662
							c1.841,1.605,3.9,3.331,6.118,5.065c8.157,7.628,17.654,12.621,27.981,16.095c2.053,0.694,4.157,1.328,6.287,1.908
							c9.303,1.306,19.361,4.374,28.141,9.236c2.193,1.211,4.303,2.545,6.304,3.979c6.516,4.019,11.462,9.847,14.455,16.452
							c4.677-4.948,12.64-9.359,25.288-12.158C578.505,382.559,577.616,384.073,576.601,386.338 M511.999,284.961
							c-54.742,0-99.117,44.348-99.117,99.041c0,54.698,44.375,99.038,99.117,99.038s99.119-44.34,99.119-99.038
							C611.118,329.309,566.74,284.961,511.999,284.961"/>
					</defs>
					<use xlink:href="#SVGID_1_"  style="overflow:visible;fill-rule:evenodd;clip-rule:evenodd;fill:#57ED7D;"/>
					<clipPath id="SVGID_2_">
						<use xlink:href="#SVGID_1_"  style="overflow:visible;"/>
					</clipPath>
					<g style="clip-path:url(#SVGID_2_);">
						<rect x="397.408" y="269.487" style="fill:#57ED7D;" width="229.184" height="229.027"/>
					</g>
				</g>
			</g>
		</g>
	</g>
</g>
</svg>
